<mxfile host="Electron" agent="Mozilla/5.0 (Windows NT 10.0; Win64; x64) AppleWebKit/537.36 (KHTML, like Gecko) draw.io/24.7.5 Chrome/126.0.6478.183 Electron/31.3.0 Safari/537.36" version="24.7.5">
  <diagram name="Page-1" id="iHzwbB_OE4pAns7jAFTp">
    <mxGraphModel dx="744" dy="876" grid="1" gridSize="10" guides="1" tooltips="1" connect="1" arrows="1" fold="1" page="1" pageScale="1" pageWidth="850" pageHeight="1100" math="0" shadow="0">
      <root>
        <mxCell id="0" />
        <mxCell id="1" parent="0" />
        <mxCell id="mcZSQQ121ks7bH2sz--S-1" value="" style="fontColor=#0066CC;verticalAlign=top;verticalLabelPosition=bottom;labelPosition=center;align=center;html=1;outlineConnect=0;fillColor=#CCCCCC;strokeColor=#6881B3;gradientColor=none;gradientDirection=north;strokeWidth=2;shape=mxgraph.networks.user_male;" vertex="1" parent="1">
          <mxGeometry x="150" y="260" width="40" height="100" as="geometry" />
        </mxCell>
        <mxCell id="mcZSQQ121ks7bH2sz--S-2" value="&amp;nbsp;&lt;div&gt;Client Workstation&lt;/div&gt;" style="fontColor=#0066CC;verticalAlign=top;verticalLabelPosition=bottom;labelPosition=center;align=center;html=1;outlineConnect=0;fillColor=#CCCCCC;strokeColor=#6881B3;gradientColor=none;gradientDirection=north;strokeWidth=2;shape=mxgraph.networks.pc;" vertex="1" parent="1">
          <mxGeometry x="220" y="210" width="100" height="70" as="geometry" />
        </mxCell>
        <mxCell id="mcZSQQ121ks7bH2sz--S-3" value="" style="fontColor=#0066CC;verticalAlign=top;verticalLabelPosition=bottom;labelPosition=center;align=center;html=1;outlineConnect=0;fillColor=#CCCCCC;strokeColor=#6881B3;gradientColor=none;gradientDirection=north;strokeWidth=2;shape=mxgraph.networks.wireless_modem;" vertex="1" parent="1">
          <mxGeometry x="340" y="90" width="100" height="85" as="geometry" />
        </mxCell>
        <mxCell id="mcZSQQ121ks7bH2sz--S-5" value="" style="shape=cube;whiteSpace=wrap;html=1;boundedLbl=1;backgroundOutline=1;darkOpacity=0.05;darkOpacity2=0.1;rotation=90;" vertex="1" parent="1">
          <mxGeometry x="500" y="140" width="80" height="180" as="geometry" />
        </mxCell>
        <mxCell id="mcZSQQ121ks7bH2sz--S-6" value="User" style="text;html=1;align=center;verticalAlign=middle;resizable=0;points=[];autosize=1;strokeColor=none;fillColor=none;" vertex="1" parent="1">
          <mxGeometry x="145" y="358" width="50" height="30" as="geometry" />
        </mxCell>
        <mxCell id="mcZSQQ121ks7bH2sz--S-7" value="Internet" style="shape=cloud;whiteSpace=wrap;html=1;" vertex="1" parent="1">
          <mxGeometry x="460" y="50" width="190" height="90" as="geometry" />
        </mxCell>
        <mxCell id="mcZSQQ121ks7bH2sz--S-8" value="" style="endArrow=open;endSize=12;dashed=1;html=1;rounded=0;" edge="1" parent="1" source="mcZSQQ121ks7bH2sz--S-2" target="mcZSQQ121ks7bH2sz--S-3">
          <mxGeometry width="160" relative="1" as="geometry">
            <mxPoint x="320" y="320" as="sourcePoint" />
            <mxPoint x="480" y="320" as="targetPoint" />
          </mxGeometry>
        </mxCell>
        <mxCell id="mcZSQQ121ks7bH2sz--S-9" value="" style="endArrow=open;endSize=12;dashed=1;html=1;rounded=0;entryX=0.13;entryY=0.77;entryDx=0;entryDy=0;entryPerimeter=0;" edge="1" parent="1" target="mcZSQQ121ks7bH2sz--S-7">
          <mxGeometry width="160" relative="1" as="geometry">
            <mxPoint x="440" y="150" as="sourcePoint" />
            <mxPoint x="478" y="115" as="targetPoint" />
          </mxGeometry>
        </mxCell>
        <mxCell id="mcZSQQ121ks7bH2sz--S-10" value="" style="endArrow=open;endSize=12;dashed=1;html=1;rounded=0;entryX=-0.01;entryY=0.515;entryDx=0;entryDy=0;entryPerimeter=0;exitX=0.55;exitY=0.95;exitDx=0;exitDy=0;exitPerimeter=0;" edge="1" parent="1" source="mcZSQQ121ks7bH2sz--S-7" target="mcZSQQ121ks7bH2sz--S-5">
          <mxGeometry width="160" relative="1" as="geometry">
            <mxPoint x="450" y="160" as="sourcePoint" />
            <mxPoint x="496" y="122" as="targetPoint" />
          </mxGeometry>
        </mxCell>
        <mxCell id="mcZSQQ121ks7bH2sz--S-11" value="&amp;lt;&amp;lt;Hospital local server&amp;gt;&amp;gt;" style="text;html=1;align=center;verticalAlign=middle;resizable=0;points=[];autosize=1;strokeColor=none;fillColor=none;" vertex="1" parent="1">
          <mxGeometry x="450" y="230" width="160" height="30" as="geometry" />
        </mxCell>
        <mxCell id="mcZSQQ121ks7bH2sz--S-12" value="" style="fontColor=#0066CC;verticalAlign=top;verticalLabelPosition=bottom;labelPosition=center;align=center;html=1;outlineConnect=0;fillColor=#CCCCCC;strokeColor=#6881B3;gradientColor=none;gradientDirection=north;strokeWidth=2;shape=mxgraph.networks.desktop_pc;" vertex="1" parent="1">
          <mxGeometry x="420" y="300" width="30" height="60" as="geometry" />
        </mxCell>
        <mxCell id="mcZSQQ121ks7bH2sz--S-13" value="" style="fontColor=#0066CC;verticalAlign=top;verticalLabelPosition=bottom;labelPosition=center;align=center;html=1;outlineConnect=0;fillColor=#CCCCCC;strokeColor=#6881B3;gradientColor=none;gradientDirection=north;strokeWidth=2;shape=mxgraph.networks.desktop_pc;" vertex="1" parent="1">
          <mxGeometry x="580" y="300" width="30" height="60" as="geometry" />
        </mxCell>
        <mxCell id="mcZSQQ121ks7bH2sz--S-15" value="" style="endArrow=open;endSize=12;dashed=1;html=1;rounded=0;exitX=1.054;exitY=0.679;exitDx=0;exitDy=0;exitPerimeter=0;" edge="1" parent="1" source="mcZSQQ121ks7bH2sz--S-5" target="mcZSQQ121ks7bH2sz--S-13">
          <mxGeometry width="160" relative="1" as="geometry">
            <mxPoint x="504.5" y="250" as="sourcePoint" />
            <mxPoint x="505.5" y="305" as="targetPoint" />
          </mxGeometry>
        </mxCell>
        <mxCell id="mcZSQQ121ks7bH2sz--S-17" value="" style="endArrow=open;endSize=12;dashed=1;html=1;rounded=0;exitX=0;exitY=0;exitDx=80;exitDy=100;exitPerimeter=0;entryX=0.5;entryY=0;entryDx=0;entryDy=0;entryPerimeter=0;" edge="1" parent="1" target="mcZSQQ121ks7bH2sz--S-12">
          <mxGeometry width="160" relative="1" as="geometry">
            <mxPoint x="460" y="275" as="sourcePoint" />
            <mxPoint x="510" y="320" as="targetPoint" />
          </mxGeometry>
        </mxCell>
        <mxCell id="mcZSQQ121ks7bH2sz--S-18" value="Database Server" style="text;html=1;align=center;verticalAlign=middle;resizable=0;points=[];autosize=1;strokeColor=none;fillColor=none;" vertex="1" parent="1">
          <mxGeometry x="375" y="358" width="110" height="30" as="geometry" />
        </mxCell>
        <mxCell id="mcZSQQ121ks7bH2sz--S-19" value="Application Server" style="text;html=1;align=center;verticalAlign=middle;resizable=0;points=[];autosize=1;strokeColor=none;fillColor=none;" vertex="1" parent="1">
          <mxGeometry x="530" y="360" width="120" height="30" as="geometry" />
        </mxCell>
        <mxCell id="mcZSQQ121ks7bH2sz--S-20" value="" style="endArrow=open;endSize=12;dashed=1;html=1;rounded=0;" edge="1" parent="1">
          <mxGeometry width="160" relative="1" as="geometry">
            <mxPoint x="182" y="300" as="sourcePoint" />
            <mxPoint x="220" y="265" as="targetPoint" />
          </mxGeometry>
        </mxCell>
        <mxCell id="mcZSQQ121ks7bH2sz--S-21" value="Modem" style="text;html=1;align=center;verticalAlign=middle;resizable=0;points=[];autosize=1;strokeColor=none;fillColor=none;" vertex="1" parent="1">
          <mxGeometry x="360" y="168" width="60" height="30" as="geometry" />
        </mxCell>
        <mxCell id="mcZSQQ121ks7bH2sz--S-22" value="" style="endArrow=classic;html=1;rounded=0;" edge="1" parent="1">
          <mxGeometry width="50" height="50" relative="1" as="geometry">
            <mxPoint x="230" y="170" as="sourcePoint" />
            <mxPoint x="320" y="200" as="targetPoint" />
          </mxGeometry>
        </mxCell>
        <mxCell id="mcZSQQ121ks7bH2sz--S-23" value="Connection" style="text;html=1;align=center;verticalAlign=middle;resizable=0;points=[];autosize=1;strokeColor=none;fillColor=none;" vertex="1" parent="1">
          <mxGeometry x="130" y="148" width="80" height="30" as="geometry" />
        </mxCell>
        <mxCell id="mcZSQQ121ks7bH2sz--S-24" value="Dipesh Shrestha" style="html=1;whiteSpace=wrap;" vertex="1" parent="1">
          <mxGeometry x="300" y="10" width="110" height="50" as="geometry" />
        </mxCell>
      </root>
    </mxGraphModel>
  </diagram>
</mxfile>
